<svg width="202" height="63" fill="none" xmlns="http://www.w3.org/2000/svg"><rect width="202" height="62.592" rx="11.38" fill="#33303E"/><path d="M68.829 24.578c-.092 0-.164-.025-.214-.075a.317.317 0 0 1-.075-.214v-8.213c0-.093.025-.164.075-.214a.266.266 0 0 1 .214-.088h2.855c.864 0 1.56.13 2.088.39s.914.645 1.157 1.157c.244.503.37 1.123.378 1.861a44.2 44.2 0 0 1 0 1.975c-.017.772-.147 1.413-.39 1.925-.235.503-.612.88-1.132 1.132-.512.243-1.191.364-2.038.364H68.83zm.943-1.069h1.912c.579 0 1.04-.08 1.384-.239.344-.159.591-.415.742-.767.16-.352.243-.817.251-1.396.017-.252.026-.47.026-.654v-.566c0-.193-.009-.411-.026-.654-.016-.814-.21-1.413-.578-1.799-.37-.394-.99-.591-1.862-.591h-1.849v6.666zm9.955 1.195c-.637 0-1.17-.121-1.597-.364a2.463 2.463 0 0 1-.981-1.007 3.53 3.53 0 0 1-.377-1.484 9.613 9.613 0 0 1-.013-.54 9.2 9.2 0 0 1 .013-.542c.025-.562.15-1.056.377-1.484.235-.428.566-.763.994-1.006.427-.243.956-.365 1.584-.365.63 0 1.158.122 1.585.365.428.243.755.578.981 1.006.235.428.365.922.39 1.484a9.2 9.2 0 0 1 .013.541c0 .218-.004.398-.013.541a3.53 3.53 0 0 1-.377 1.484 2.463 2.463 0 0 1-.981 1.007c-.428.243-.96.364-1.598.364zm0-.968c.52 0 .935-.164 1.246-.49.31-.336.478-.823.503-1.46.008-.126.012-.285.012-.478s-.004-.352-.012-.478c-.025-.637-.193-1.12-.503-1.446-.31-.336-.726-.503-1.246-.503s-.939.167-1.257.503c-.31.327-.474.809-.49 1.446a7.414 7.414 0 0 0-.014.478c0 .193.005.352.013.478.017.637.18 1.124.49 1.46.32.326.739.49 1.258.49zm6.108.842a.376.376 0 0 1-.252-.075.73.73 0 0 1-.15-.239l-1.787-5.836a.336.336 0 0 1-.025-.126c0-.076.025-.138.076-.189a.285.285 0 0 1 .188-.075h.554c.092 0 .163.025.213.075.05.05.084.097.101.139l1.396 4.742 1.497-4.692a.475.475 0 0 1 .1-.176c.06-.059.143-.088.252-.088h.428c.109 0 .193.03.251.088a.319.319 0 0 1 .101.176l1.497 4.692 1.396-4.742a.292.292 0 0 1 .088-.139c.05-.05.122-.075.214-.075h.553a.256.256 0 0 1 .265.264.338.338 0 0 1-.025.126l-1.787 5.836a.453.453 0 0 1-.138.239c-.059.05-.147.075-.264.075h-.49a.488.488 0 0 1-.277-.075.454.454 0 0 1-.139-.239l-1.459-4.503-1.459 4.503a.532.532 0 0 1-.15.239.452.452 0 0 1-.278.075h-.49zm8.638 0a.318.318 0 0 1-.214-.075.317.317 0 0 1-.075-.214v-5.962c0-.084.025-.15.075-.201a.291.291 0 0 1 .214-.088h.591c.084 0 .151.03.202.088.058.05.087.117.087.201v.553c.219-.285.491-.515.818-.691.336-.185.763-.277 1.283-.277.545 0 1.006.122 1.384.365.386.235.675.566.868.993.192.42.289.91.289 1.472v3.547a.317.317 0 0 1-.076.214.272.272 0 0 1-.2.075h-.63a.317.317 0 0 1-.213-.075.317.317 0 0 1-.076-.214v-3.484c0-.587-.142-1.044-.428-1.371-.285-.335-.704-.503-1.257-.503-.52 0-.94.168-1.258.503-.31.327-.466.784-.466 1.371v3.484c0 .084-.03.155-.088.214a.272.272 0 0 1-.201.075h-.629zm7.641 0a.318.318 0 0 1-.214-.075.32.32 0 0 1-.076-.214v-8.352c0-.084.026-.15.076-.201a.292.292 0 0 1 .214-.088h.591c.092 0 .163.03.214.088.05.05.075.117.075.201v8.352a.319.319 0 0 1-.075.214.291.291 0 0 1-.214.075h-.591zm5.436.126c-.638 0-1.17-.121-1.598-.364a2.459 2.459 0 0 1-.981-1.007 3.533 3.533 0 0 1-.377-1.484 8.93 8.93 0 0 1-.013-.54c0-.227.004-.408.013-.542.025-.562.151-1.056.377-1.484.235-.428.566-.763.994-1.006.427-.243.956-.365 1.585-.365s1.157.122 1.584.365c.428.243.755.578.982 1.006.234.428.364.922.39 1.484.008.134.012.315.012.541 0 .218-.004.398-.012.541a3.533 3.533 0 0 1-.378 1.484 2.459 2.459 0 0 1-.981 1.007c-.428.243-.96.364-1.597.364zm0-.968c.52 0 .935-.164 1.245-.49.31-.336.478-.823.503-1.46.008-.126.013-.285.013-.478s-.005-.352-.013-.478c-.025-.637-.193-1.12-.503-1.446-.31-.336-.725-.503-1.245-.503-.52 0-.94.167-1.258.503-.31.327-.474.809-.491 1.446a7.783 7.783 0 0 0-.012.478c0 .193.004.352.012.478.017.637.181 1.124.491 1.46.318.326.738.49 1.258.49zm6.367.968c-.419 0-.801-.084-1.145-.251a2.222 2.222 0 0 1-.83-.68 1.598 1.598 0 0 1-.314-.968c0-.579.235-1.04.704-1.384.47-.343 1.082-.57 1.837-.679l1.874-.264v-.365c0-.402-.118-.717-.352-.943-.227-.227-.6-.34-1.12-.34-.377 0-.683.076-.918.227a1.221 1.221 0 0 0-.478.578c-.05.126-.139.189-.264.189h-.566c-.093 0-.164-.025-.214-.076a.337.337 0 0 1-.063-.2c0-.127.046-.282.138-.466a2.03 2.03 0 0 1 .453-.541c.201-.176.457-.323.767-.44.319-.126.705-.189 1.158-.189.503 0 .926.067 1.27.201.344.126.612.298.805.516.201.218.344.465.428.742.092.277.138.558.138.843v4.075a.29.29 0 0 1-.088.214.27.27 0 0 1-.201.075h-.579a.291.291 0 0 1-.214-.075.319.319 0 0 1-.075-.214v-.54a2.468 2.468 0 0 1-.44.452 2.554 2.554 0 0 1-.692.365c-.277.092-.617.138-1.019.138zm.264-.943c.344 0 .658-.071.944-.214.285-.15.507-.381.666-.692.168-.31.252-.7.252-1.17v-.352l-1.459.214c-.596.084-1.044.226-1.346.428-.302.193-.453.44-.453.742 0 .235.067.432.201.591.143.151.319.264.528.34.218.075.441.113.667.113zm7.242.943c-.461 0-.859-.08-1.195-.239a2.415 2.415 0 0 1-.83-.666 3.159 3.159 0 0 1-.478-.969 5.016 5.016 0 0 1-.176-1.144 6.403 6.403 0 0 1-.013-.378c0-.117.005-.243.013-.377a4.98 4.98 0 0 1 .176-1.132 3.16 3.16 0 0 1 .478-.969c.218-.285.495-.507.83-.666.336-.168.734-.252 1.195-.252.495 0 .906.088 1.233.264.327.176.595.394.805.654v-2.893c0-.084.025-.15.075-.201a.292.292 0 0 1 .214-.088h.604a.25.25 0 0 1 .201.088.25.25 0 0 1 .088.201v8.352a.29.29 0 0 1-.088.214.27.27 0 0 1-.201.075h-.566c-.092 0-.164-.025-.214-.075a.319.319 0 0 1-.075-.214v-.528c-.21.268-.483.495-.818.68-.335.175-.755.263-1.258.263zm.264-1.019c.42 0 .755-.096 1.007-.289a1.8 1.8 0 0 0 .566-.73 2.58 2.58 0 0 0 .201-.918c.008-.134.012-.293.012-.478 0-.192-.004-.356-.012-.49a2.181 2.181 0 0 0-.214-.868 1.686 1.686 0 0 0-.579-.704c-.251-.185-.578-.277-.981-.277-.427 0-.767.096-1.019.29a1.522 1.522 0 0 0-.54.741 3.35 3.35 0 0 0-.189.981 11.09 11.09 0 0 0 0 .73c.017.352.08.683.189.994.109.301.289.549.54.742.252.184.592.276 1.019.276zm9.855.893a.48.48 0 0 1-.302-.088.657.657 0 0 1-.163-.226l-2.327-5.836a.332.332 0 0 1-.025-.126.257.257 0 0 1 .264-.264h.604c.092 0 .163.025.213.075.051.05.08.097.088.139l1.925 4.956 1.912-4.956a.54.54 0 0 1 .088-.139c.05-.05.121-.075.214-.075h.616a.24.24 0 0 1 .176.075c.059.05.088.113.088.189a.332.332 0 0 1-.025.126l-2.34 5.836a.493.493 0 0 1-.163.226c-.067.06-.168.088-.302.088h-.541zm4.978 0a.316.316 0 0 1-.214-.075.314.314 0 0 1-.076-.214v-5.962a.27.27 0 0 1 .076-.201.29.29 0 0 1 .214-.088h.603c.084 0 .151.03.202.088.05.05.075.117.075.201v5.962a.319.319 0 0 1-.075.214.275.275 0 0 1-.202.075h-.603zm-.101-7.76a.318.318 0 0 1-.214-.076.319.319 0 0 1-.075-.214v-.679c0-.084.025-.15.075-.201a.292.292 0 0 1 .214-.088h.792c.084 0 .151.03.202.088.058.05.088.117.088.201v.68c0 .083-.03.154-.088.213a.275.275 0 0 1-.202.076h-.792zm4.681 7.886c-.419 0-.8-.084-1.144-.251a2.206 2.206 0 0 1-.83-.68 1.592 1.592 0 0 1-.315-.968c0-.579.235-1.04.705-1.384.469-.343 1.081-.57 1.836-.679l1.874-.264v-.365c0-.402-.117-.717-.352-.943-.226-.227-.6-.34-1.12-.34-.377 0-.683.076-.918.227a1.233 1.233 0 0 0-.478.578c-.05.126-.138.189-.264.189h-.566a.291.291 0 0 1-.214-.076.337.337 0 0 1-.063-.2c0-.127.047-.282.139-.466.1-.185.251-.365.453-.541.201-.176.457-.323.767-.44.318-.126.704-.189 1.157-.189.503 0 .927.067 1.27.201.344.126.613.298.805.516.202.218.344.465.428.742.092.277.138.558.138.843v4.075a.29.29 0 0 1-.088.214.27.27 0 0 1-.201.075h-.578c-.093 0-.164-.025-.214-.075a.314.314 0 0 1-.076-.214v-.54a2.435 2.435 0 0 1-.44.452 2.54 2.54 0 0 1-.692.365c-.276.092-.616.138-1.019.138zm.265-.943c.343 0 .658-.071.943-.214.285-.15.507-.381.667-.692.167-.31.251-.7.251-1.17v-.352l-1.459.214c-.595.084-1.044.226-1.346.428-.302.193-.453.44-.453.742 0 .235.067.432.202.591.142.151.318.264.528.34.218.075.44.113.667.113zM67.948 45.35a.38.38 0 0 1-.251-.101.38.38 0 0 1-.1-.252c0-.056.005-.106.016-.15l3.941-10.768c.034-.123.1-.229.201-.318.112-.101.263-.151.453-.151h2.482c.19 0 .336.05.436.15a.61.61 0 0 1 .218.32l3.925 10.766a.332.332 0 0 1 .033.151c0 .09-.039.174-.117.252a.342.342 0 0 1-.252.1h-2.062c-.168 0-.297-.039-.386-.117a.74.74 0 0 1-.151-.235l-.654-1.71h-4.478l-.637 1.71a.736.736 0 0 1-.151.235c-.079.078-.213.117-.403.117h-2.063zm3.942-4.478h3.12l-1.577-4.428-1.543 4.428zm8.97 7.664a.409.409 0 0 1-.303-.117.409.409 0 0 1-.117-.302v-11.07c0-.122.039-.223.117-.301a.409.409 0 0 1 .302-.117h1.895c.112 0 .207.039.285.117.09.078.135.179.135.302v.62a2.97 2.97 0 0 1 1.023-.855c.424-.235.95-.352 1.576-.352.56 0 1.051.09 1.476.268.425.168.788.42 1.09.755.302.335.537.743.704 1.224.18.48.28 1.034.302 1.66.011.224.017.43.017.621 0 .19-.005.397-.017.62a5.549 5.549 0 0 1-.285 1.627c-.168.481-.402.89-.704 1.225-.302.335-.671.598-1.107.788-.425.179-.917.268-1.476.268-.548 0-1.028-.095-1.442-.285a2.814 2.814 0 0 1-1.007-.838v3.723c0 .123-.039.223-.117.302a.408.408 0 0 1-.302.117H80.86zm4.008-5.266c.38 0 .676-.078.888-.235.213-.156.364-.369.453-.637.1-.269.162-.565.185-.89a8.053 8.053 0 0 0 0-1.039 3.132 3.132 0 0 0-.185-.889c-.09-.268-.24-.48-.453-.637-.212-.157-.508-.235-.888-.235-.37 0-.666.084-.89.252a1.335 1.335 0 0 0-.486.62c-.1.257-.156.537-.168.839a11.788 11.788 0 0 0 0 1.258c.012.28.073.542.185.788.112.235.28.43.503.587.224.145.509.218.856.218zm6.571 5.266a.409.409 0 0 1-.301-.117.409.409 0 0 1-.118-.302v-11.07c0-.122.04-.223.118-.301a.409.409 0 0 1 .301-.117h1.896c.111 0 .206.039.285.117.09.078.134.179.134.302v.62a2.97 2.97 0 0 1 1.023-.855c.425-.235.95-.352 1.576-.352.56 0 1.051.09 1.476.268.425.168.788.42 1.09.755.302.335.537.743.705 1.224.179.48.28 1.034.302 1.66a12.464 12.464 0 0 1 0 1.241 5.549 5.549 0 0 1-.286 1.627c-.167.481-.402.89-.704 1.225-.302.335-.67.598-1.107.788-.425.179-.917.268-1.476.268-.548 0-1.028-.095-1.442-.285a2.814 2.814 0 0 1-1.006-.838v3.723c0 .123-.04.223-.118.302a.408.408 0 0 1-.302.117H91.44zm4.009-5.266c.38 0 .676-.078.889-.235.212-.156.363-.369.452-.637.101-.269.162-.565.185-.89a8.053 8.053 0 0 0 0-1.039 3.132 3.132 0 0 0-.185-.889c-.09-.268-.24-.48-.453-.637-.212-.157-.508-.235-.888-.235-.37 0-.666.084-.89.252a1.335 1.335 0 0 0-.486.62c-.1.257-.156.537-.167.839a11.79 11.79 0 0 0 0 1.258c.01.28.072.542.184.788.112.235.28.43.503.587.224.145.51.218.856.218zm6.572 2.08a.408.408 0 0 1-.302-.118.406.406 0 0 1-.118-.302V33.861c0-.123.039-.223.118-.302a.408.408 0 0 1 .302-.117h1.979c.123 0 .223.04.301.117a.406.406 0 0 1 .118.302v11.07a.406.406 0 0 1-.118.301.406.406 0 0 1-.301.117h-1.979zm8.404.167c-1.319 0-2.37-.358-3.153-1.073-.783-.716-1.191-1.778-1.224-3.187v-.587c.033-.883.229-1.638.587-2.264a3.607 3.607 0 0 1 1.509-1.442c.649-.335 1.403-.503 2.264-.503.984 0 1.795.196 2.432.587a3.71 3.71 0 0 1 1.459 1.593c.324.67.487 1.437.487 2.298v.402a.382.382 0 0 1-.135.302.387.387 0 0 1-.285.117h-5.366V41.879c.011.324.067.62.167.889.101.268.257.48.47.637.212.157.469.235.771.235.224 0 .408-.034.554-.1.156-.08.285-.163.386-.252.1-.101.178-.185.234-.252.101-.112.179-.179.235-.201a.702.702 0 0 1 .302-.05h2.08c.111 0 .201.033.268.1.078.056.112.14.101.252-.012.19-.107.419-.286.687-.178.269-.441.537-.788.805-.335.258-.76.47-1.274.638-.515.167-1.113.251-1.795.251zm-1.425-5.417h2.834v-.033c0-.358-.056-.671-.168-.94a1.231 1.231 0 0 0-.486-.62 1.335 1.335 0 0 0-.772-.218 1.33 1.33 0 0 0-.771.218 1.416 1.416 0 0 0-.47.62 2.426 2.426 0 0 0-.167.94v.033zm15.49 5.417c-1.118 0-2.046-.156-2.784-.47-.738-.324-1.297-.743-1.677-1.257-.38-.514-.581-1.062-.604-1.644 0-.09.034-.168.101-.235a.367.367 0 0 1 .268-.117h2.113c.157 0 .274.028.352.084a.86.86 0 0 1 .235.218c.09.168.213.33.369.486.168.157.38.285.638.386.268.09.598.134.989.134.649 0 1.135-.1 1.459-.302.336-.201.503-.475.503-.822a.765.765 0 0 0-.268-.603c-.179-.168-.47-.313-.872-.436a13.145 13.145 0 0 0-1.577-.403c-.849-.179-1.576-.408-2.18-.687-.592-.291-1.045-.666-1.358-1.124-.313-.47-.47-1.051-.47-1.744 0-.682.19-1.292.57-1.828.392-.537.934-.956 1.627-1.258.693-.302 1.515-.453 2.465-.453.772 0 1.448.1 2.03.302.592.201 1.09.47 1.492.805.403.335.705.693.906 1.073.212.37.324.733.335 1.09a.38.38 0 0 1-.1.252.342.342 0 0 1-.252.1h-2.214a.701.701 0 0 1-.318-.066.614.614 0 0 1-.235-.218c-.067-.247-.246-.459-.537-.638-.279-.19-.648-.285-1.107-.285-.492 0-.877.09-1.157.268-.268.168-.402.43-.402.789 0 .223.072.419.218.587.156.167.408.313.754.436a13.7 13.7 0 0 0 1.459.385c1.018.19 1.84.43 2.466.722.626.28 1.084.648 1.375 1.106.291.448.436 1.012.436 1.694 0 .76-.218 1.42-.654 1.98-.425.547-1.017.967-1.778 1.257-.76.29-1.632.436-2.616.436zm11.004-.168c-.716 0-1.336-.111-1.862-.335a2.588 2.588 0 0 1-1.191-1.073c-.279-.492-.419-1.124-.419-1.895v-3.22h-1.308a.47.47 0 0 1-.319-.118.41.41 0 0 1-.117-.302v-1.358a.41.41 0 0 1 .117-.302.47.47 0 0 1 .319-.117h1.308V33.86a.41.41 0 0 1 .117-.302.45.45 0 0 1 .302-.117h1.946a.41.41 0 0 1 .302.117.41.41 0 0 1 .117.302v2.768h2.096c.123 0 .224.039.302.117a.406.406 0 0 1 .118.302v1.358a.406.406 0 0 1-.118.302.408.408 0 0 1-.302.117h-2.096v2.986c0 .38.073.682.218.905.145.224.391.336.738.336h1.291c.123 0 .224.039.302.117a.406.406 0 0 1 .118.302v1.46a.406.406 0 0 1-.118.301.408.408 0 0 1-.302.117h-1.559zm7.493.168c-.939 0-1.733-.15-2.382-.453-.637-.301-1.129-.732-1.475-1.291-.336-.57-.526-1.247-.571-2.03a15.546 15.546 0 0 1-.016-.754c0-.29.005-.542.016-.755.045-.794.246-1.47.604-2.029a3.51 3.51 0 0 1 1.493-1.291c.648-.302 1.425-.453 2.331-.453.917 0 1.694.15 2.331.453.649.301 1.152.732 1.51 1.291.357.559.559 1.236.603 2.03.011.212.017.463.017.754 0 .28-.006.531-.017.755-.044.782-.24 1.459-.587 2.029-.335.559-.827.99-1.476 1.291-.637.302-1.431.453-2.381.453zm0-2.046c.503 0 .866-.15 1.09-.453.235-.302.369-.754.403-1.358.011-.168.016-.391.016-.671s-.005-.503-.016-.67c-.034-.593-.168-1.04-.403-1.343-.224-.313-.587-.47-1.09-.47-.492 0-.855.157-1.09.47-.235.302-.364.75-.386 1.342-.011.168-.017.392-.017.671 0 .28.006.503.017.67.022.605.151 1.057.386 1.36.235.301.598.452 1.09.452zm6.53 1.879a.408.408 0 0 1-.302-.118.41.41 0 0 1-.117-.302v-7.882c0-.112.039-.207.117-.285a.383.383 0 0 1 .302-.134h1.928c.123 0 .224.044.302.134a.386.386 0 0 1 .118.285v.67a3.153 3.153 0 0 1 1.073-.804c.425-.19.9-.285 1.426-.285h.738a.39.39 0 0 1 .285.117.384.384 0 0 1 .134.302v1.727a.419.419 0 0 1-.134.302.39.39 0 0 1-.285.117h-1.627c-.459 0-.816.13-1.074.386-.246.246-.369.598-.369 1.057v4.293a.381.381 0 0 1-.134.302.408.408 0 0 1-.302.117h-2.079zm11.156.167c-1.319 0-2.37-.358-3.153-1.073-.783-.716-1.191-1.778-1.224-3.187v-.587c.033-.883.229-1.638.587-2.264a3.607 3.607 0 0 1 1.509-1.442c.648-.335 1.403-.503 2.264-.503.984 0 1.795.196 2.432.587a3.717 3.717 0 0 1 1.459 1.593c.324.67.486 1.437.486 2.298v.402a.381.381 0 0 1-.134.302.387.387 0 0 1-.285.117h-5.367V41.879c.012.324.067.62.168.889.101.268.257.48.47.637.212.157.469.235.771.235.224 0 .408-.034.554-.1.156-.08.285-.163.385-.252.101-.101.179-.185.235-.252.101-.112.179-.179.235-.201a.702.702 0 0 1 .302-.05h2.079c.112 0 .202.033.269.1.078.056.112.14.1.252-.011.19-.106.419-.285.687-.179.269-.441.537-.788.805-.335.258-.76.47-1.275.638-.514.167-1.112.251-1.794.251zm-1.426-5.417h2.835v-.033c0-.358-.056-.671-.168-.94a1.236 1.236 0 0 0-.486-.62 1.335 1.335 0 0 0-.772-.218 1.33 1.33 0 0 0-.771.218 1.408 1.408 0 0 0-.47.62 2.425 2.425 0 0 0-.168.94v.033zM36.734 42.414a6.513 6.513 0 0 1-1.536-1.408 18.309 18.309 0 0 1-1.319-1.777 17.226 17.226 0 0 1-2.203-4.445c-.619-1.834-.918-3.59-.918-5.31 0-1.92.42-3.595 1.242-5.003a7.077 7.077 0 0 1 2.594-2.664 6.97 6.97 0 0 1 3.512-1.027c.435 0 .904.062 1.401.181.357.1.792.258 1.324.454.676.258 1.048.416 1.174.454.396.143.73.205.99.205.2 0 .48-.062.797-.157.18-.063.517-.173 1-.377.48-.172.856-.32 1.155-.43.46-.134.904-.258 1.3-.32a6.25 6.25 0 0 1 1.42-.058 8.49 8.49 0 0 1 2.402.51c1.26.502 2.28 1.285 3.038 2.398-.32.195-.621.42-.898.673a7.492 7.492 0 0 0-1.523 1.838 6.199 6.199 0 0 0-.796 3.08c.02 1.322.362 2.487 1.038 3.495a6.609 6.609 0 0 0 1.9 1.877c.386.257.72.434 1.038.553-.15.459-.309.902-.497 1.342a17.515 17.515 0 0 1-1.546 2.827c-.536.769-.957 1.342-1.276 1.723-.497.582-.976 1.027-1.459 1.337a3.286 3.286 0 0 1-1.797.534 4.123 4.123 0 0 1-1.28-.153c-.358-.12-.711-.248-1.059-.396a8.558 8.558 0 0 0-1.116-.415 5.881 5.881 0 0 0-2.875-.005c-.386.11-.758.238-1.126.396-.516.215-.86.359-1.058.42a5.545 5.545 0 0 1-1.223.21c-.643 0-1.242-.181-1.835-.55l.015-.012zm8.479-22.566c-.84.416-1.643.593-2.44.535-.125-.793 0-1.604.333-2.493a6.573 6.573 0 0 1 3.251-3.59c.817-.416 1.595-.64 2.339-.673.096.83 0 1.647-.31 2.53a7.294 7.294 0 0 1-1.236 2.149 6.323 6.323 0 0 1-1.961 1.542h.024z" fill="#fff"/></svg>