<svg width="202" height="63" fill="none" xmlns="http://www.w3.org/2000/svg"><rect width="202" height="62.592" rx="11.38" fill="#33303E"/><path d="M68.829 24.346a.317.317 0 0 1-.214-.075.317.317 0 0 1-.075-.214v-8.214c0-.092.025-.163.075-.214a.291.291 0 0 1 .214-.088h2.855c1.266 0 2.18.285 2.742.856.562.562.856 1.413.88 2.553.01.243.013.57.013.981 0 .411-.004.742-.012.994-.025.796-.16 1.446-.403 1.95a2.282 2.282 0 0 1-1.12 1.106c-.51.244-1.19.365-2.037.365H68.83zm2.855-1.069c.579 0 1.036-.08 1.371-.239.344-.16.591-.41.742-.755.16-.352.248-.821.264-1.408.017-.504.026-.818.026-.944 0-.134-.009-.444-.026-.93-.016-.83-.213-1.434-.59-1.812-.378-.386-.994-.579-1.85-.579h-1.849v6.667h1.912zm8.043 1.195c-.922 0-1.639-.26-2.15-.78-.504-.52-.772-1.212-.805-2.075l-.013-.541.013-.541c.033-.855.306-1.543.817-2.063.512-.528 1.224-.792 2.138-.792.914 0 1.627.264 2.139.792.511.52.784 1.208.817 2.063.009.092.013.273.013.54 0 .27-.004.45-.013.542-.033.863-.306 1.555-.817 2.075-.503.52-1.216.78-2.139.78zm0-.969c.529 0 .944-.167 1.246-.503.31-.335.478-.817.503-1.446.008-.084.012-.243.012-.478s-.004-.394-.012-.478c-.025-.63-.193-1.111-.503-1.447-.302-.335-.717-.503-1.246-.503-.528 0-.947.168-1.257.503-.31.336-.474.818-.49 1.447l-.014.478.013.478c.017.629.18 1.11.49 1.446.31.336.73.503 1.258.503zm6.108.843a.376.376 0 0 1-.252-.075.587.587 0 0 1-.15-.24l-1.787-5.836-.025-.125c0-.076.025-.139.076-.19a.285.285 0 0 1 .188-.075h.554c.084 0 .15.026.2.076a.288.288 0 0 1 .114.138l1.396 4.742 1.497-4.691a.338.338 0 0 1 .113-.177.323.323 0 0 1 .24-.088h.427c.1 0 .18.03.239.088.059.05.096.11.113.177l1.497 4.691 1.396-4.742a.292.292 0 0 1 .088-.138.317.317 0 0 1 .214-.076h.566c.067 0 .126.026.176.076.05.05.076.113.076.189l-.025.125-1.774 5.837a.587.587 0 0 1-.151.239c-.059.05-.147.075-.264.075h-.49c-.227 0-.365-.105-.416-.314l-1.459-4.503-1.459 4.503c-.067.21-.21.314-.428.314h-.49zm8.638 0a.318.318 0 0 1-.214-.075.317.317 0 0 1-.075-.214v-5.962c0-.084.025-.151.075-.201a.291.291 0 0 1 .214-.088h.591c.084 0 .151.029.202.087.058.05.087.118.087.202v.553c.244-.31.529-.549.856-.717.335-.168.75-.251 1.245-.251.805 0 1.43.26 1.874.78.453.511.68 1.194.68 2.05v3.547c0 .084-.03.155-.088.214a.272.272 0 0 1-.202.075h-.629a.317.317 0 0 1-.213-.075.317.317 0 0 1-.076-.214v-3.484c0-.596-.147-1.057-.44-1.384-.285-.327-.7-.49-1.245-.49-.529 0-.948.167-1.258.503-.31.327-.466.784-.466 1.37v3.485c0 .084-.03.155-.088.214a.272.272 0 0 1-.201.075h-.629zm7.641 0a.318.318 0 0 1-.214-.075.32.32 0 0 1-.076-.214v-8.352c0-.084.026-.151.076-.201a.292.292 0 0 1 .214-.088h.591a.25.25 0 0 1 .201.088.25.25 0 0 1 .088.2v8.353a.29.29 0 0 1-.088.214.27.27 0 0 1-.201.075h-.591zm5.436.126c-.923 0-1.64-.26-2.151-.78-.503-.52-.772-1.212-.805-2.075l-.013-.541.013-.541c.033-.855.306-1.543.817-2.063.512-.528 1.225-.792 2.139-.792.914 0 1.626.264 2.138.792.511.52.784 1.208.818 2.063.008.092.012.273.012.54 0 .27-.004.45-.012.542-.034.863-.307 1.555-.818 2.075-.503.52-1.216.78-2.138.78zm0-.969c.528 0 .943-.167 1.245-.503.31-.335.478-.817.503-1.446a5.95 5.95 0 0 0 .013-.478c0-.235-.005-.394-.013-.478-.025-.63-.193-1.111-.503-1.447-.302-.335-.717-.503-1.245-.503-.529 0-.948.168-1.258.503-.31.336-.474.818-.491 1.447l-.012.478.012.478c.017.629.181 1.11.491 1.446.31.336.729.503 1.258.503zm6.367.969c-.411 0-.792-.084-1.145-.252a2.186 2.186 0 0 1-.842-.679 1.67 1.67 0 0 1-.302-.968c0-.554.226-1.007.679-1.359.461-.36 1.082-.595 1.862-.704l1.874-.264v-.365c0-.855-.491-1.283-1.472-1.283-.369 0-.671.08-.906.239-.234.15-.41.331-.528.54a.341.341 0 0 1-.101.164c-.033.034-.083.05-.15.05h-.541a.302.302 0 0 1-.202-.075.302.302 0 0 1-.075-.201c.008-.201.101-.428.277-.68.184-.26.465-.482.842-.666.378-.193.843-.29 1.397-.29.939 0 1.614.223 2.025.667.411.436.616.981.616 1.636v4.075a.29.29 0 0 1-.088.214.27.27 0 0 1-.201.075h-.579a.318.318 0 0 1-.214-.075.319.319 0 0 1-.075-.214v-.541c-.185.268-.453.495-.805.68-.352.184-.801.276-1.346.276zm.264-.943c.545 0 .99-.177 1.333-.529.353-.36.529-.876.529-1.547v-.352l-1.459.214c-.596.084-1.044.226-1.346.427-.302.193-.453.44-.453.743 0 .335.138.595.415.78.277.176.604.264.981.264zm7.242.943c-.872 0-1.53-.285-1.975-.855-.444-.57-.679-1.292-.704-2.164l-.013-.377.013-.378c.025-.863.26-1.58.704-2.15.445-.579 1.103-.868 1.975-.868.864 0 1.543.306 2.038.918v-2.893c0-.084.025-.151.075-.201a.292.292 0 0 1 .214-.088h.604a.25.25 0 0 1 .201.088.25.25 0 0 1 .088.2v8.353a.29.29 0 0 1-.088.214.27.27 0 0 1-.201.075h-.566a.318.318 0 0 1-.214-.075.319.319 0 0 1-.075-.214v-.528c-.487.628-1.179.943-2.076.943zm.264-1.019c.579 0 1.011-.188 1.296-.566.293-.386.453-.843.478-1.37.008-.093.012-.252.012-.479 0-.235-.004-.398-.012-.49a2.102 2.102 0 0 0-.478-1.296c-.302-.369-.734-.553-1.296-.553-.595 0-1.031.184-1.308.553-.268.369-.415.855-.44 1.46l-.013.364c0 1.585.587 2.377 1.761 2.377zm9.855.893c-.218 0-.373-.105-.465-.314l-2.327-5.837-.025-.125a.257.257 0 0 1 .264-.265h.604c.142 0 .247.072.314.214l1.912 4.956 1.912-4.956c.075-.142.176-.213.302-.213h.616a.24.24 0 0 1 .176.075c.059.05.088.113.088.189l-.025.125-2.34 5.837c-.092.21-.247.314-.465.314h-.541zm4.877-7.76a.318.318 0 0 1-.214-.076.319.319 0 0 1-.075-.214v-.68c0-.083.025-.154.075-.213a.292.292 0 0 1 .214-.088h.792c.084 0 .155.03.214.088a.29.29 0 0 1 .088.214v.68a.29.29 0 0 1-.088.213.318.318 0 0 1-.214.075h-.792zm.101 7.76a.316.316 0 0 1-.214-.075.314.314 0 0 1-.076-.214v-5.962a.27.27 0 0 1 .076-.201.29.29 0 0 1 .214-.088h.603c.084 0 .151.029.202.087.058.05.088.118.088.202v5.962c0 .084-.03.155-.088.214a.275.275 0 0 1-.202.075h-.603zm4.58.126c-.41 0-.792-.084-1.144-.252a2.197 2.197 0 0 1-.843-.679 1.678 1.678 0 0 1-.302-.968c0-.554.227-1.007.679-1.359.462-.36 1.082-.595 1.862-.704l1.874-.264v-.365c0-.855-.49-1.283-1.472-1.283-.368 0-.67.08-.905.239-.235.15-.411.331-.528.54a.349.349 0 0 1-.101.164c-.034.034-.084.05-.151.05h-.541a.301.301 0 0 1-.201-.075.303.303 0 0 1-.076-.201c.009-.201.101-.428.277-.68.185-.26.466-.482.843-.666.377-.193.843-.29 1.396-.29.939 0 1.614.223 2.025.667.411.436.616.981.616 1.636v4.075a.29.29 0 0 1-.088.214.27.27 0 0 1-.201.075h-.578a.316.316 0 0 1-.214-.075.314.314 0 0 1-.076-.214v-.541c-.184.268-.453.495-.805.68-.352.184-.801.276-1.346.276zm.265-.943c.545 0 .989-.177 1.333-.529.352-.36.528-.876.528-1.547v-.352l-1.459.214c-.595.084-1.044.226-1.346.427-.302.193-.453.44-.453.743 0 .335.139.595.415.78.277.176.604.264.982.264zM73.466 45.285c-1.61 0-2.868-.391-3.773-1.174-.906-.794-1.387-1.917-1.443-3.37a50.068 50.068 0 0 1-.016-1.544c0-.704.005-1.219.016-1.543.056-1.42.543-2.515 1.46-3.287.927-.771 2.18-1.157 3.756-1.157 1.062 0 1.985.173 2.767.52.794.347 1.398.788 1.812 1.325.424.537.648 1.09.67 1.66 0 .1-.039.185-.117.252a.341.341 0 0 1-.251.1h-2.45a.605.605 0 0 1-.267-.05.39.39 0 0 1-.168-.184 2.138 2.138 0 0 0-.688-.839c-.313-.246-.749-.369-1.308-.369-1.33 0-2.03.704-2.096 2.113-.011.313-.017.8-.017 1.46 0 .648.006 1.134.017 1.458.067 1.476.782 2.214 2.146 2.214.66 0 1.186-.168 1.577-.503.402-.347.604-.872.604-1.576v-.32H74.12a.409.409 0 0 1-.302-.117.468.468 0 0 1-.117-.318v-1.241c0-.123.04-.224.117-.302a.383.383 0 0 1 .302-.134h4.227c.123 0 .223.044.301.134a.408.408 0 0 1 .118.302v1.912c0 .95-.218 1.772-.654 2.465-.436.682-1.057 1.208-1.862 1.577-.794.357-1.722.536-2.784.536zm11.165 0c-1.386 0-2.454-.33-3.203-.99-.75-.659-1.157-1.587-1.224-2.783a11.42 11.42 0 0 1-.017-.755c0-.358.005-.61.017-.755.067-1.185.486-2.107 1.257-2.767.772-.67 1.828-1.006 3.17-1.006 1.353 0 2.415.335 3.187 1.006.771.66 1.19 1.582 1.257 2.767.012.146.017.397.017.755s-.005.61-.017.755c-.067 1.196-.475 2.124-1.224 2.784-.749.66-1.822.99-3.22.99zm0-2.046c.492 0 .855-.145 1.09-.436.235-.302.37-.76.403-1.375.01-.112.017-.336.017-.671s-.006-.56-.017-.67c-.034-.605-.174-1.058-.42-1.36-.234-.301-.592-.452-1.073-.452-.928 0-1.42.604-1.476 1.811l-.017.67.017.672c.023.615.151 1.073.386 1.375.246.29.61.436 1.09.436zm10.253 2.046c-1.387 0-2.454-.33-3.204-.99-.749-.659-1.157-1.587-1.224-2.783a11.4 11.4 0 0 1-.017-.755c0-.358.006-.61.017-.755.067-1.185.486-2.107 1.258-2.767.772-.67 1.828-1.006 3.17-1.006 1.353 0 2.415.335 3.186 1.006.772.66 1.191 1.582 1.258 2.767.011.146.017.397.017.755s-.006.61-.017.755c-.067 1.196-.475 2.124-1.224 2.784-.75.66-1.823.99-3.22.99zm0-2.046c.492 0 .855-.145 1.09-.436.235-.302.369-.76.402-1.375.011-.112.017-.336.017-.671a8.45 8.45 0 0 0-.017-.67c-.033-.605-.173-1.058-.419-1.36-.235-.301-.592-.452-1.073-.452-.928 0-1.42.604-1.476 1.811l-.017.67.017.672c.022.615.15 1.073.386 1.375.246.29.609.436 1.09.436zm10.403 5.568c-1.062 0-1.923-.173-2.582-.52-.66-.346-1.135-.743-1.426-1.19-.279-.448-.419-.822-.419-1.124 0-.1.044-.19.134-.269a.446.446 0 0 1 .302-.117h2.13c.112 0 .195.022.251.067a.751.751 0 0 1 .185.268c.112.258.263.459.453.604.19.157.486.235.888.235.515 0 .895-.129 1.141-.386.246-.246.369-.665.369-1.258v-1.123c-.57.626-1.387.939-2.449.939-1.129 0-1.995-.33-2.599-.99-.593-.67-.917-1.637-.973-2.9l-.017-.454c0-1.353.302-2.415.906-3.186.604-.783 1.498-1.174 2.683-1.174.57 0 1.074.112 1.51.335.436.213.805.503 1.107.872v-.62a.41.41 0 0 1 .117-.302.446.446 0 0 1 .302-.117h1.929a.38.38 0 0 1 .301.134c.09.078.135.173.135.285v8.067c0 1.274-.381 2.247-1.141 2.918-.76.67-1.839 1.006-3.237 1.006zm-.117-6.054c.503 0 .878-.151 1.124-.453.246-.313.385-.704.419-1.174.011-.078.017-.252.017-.52 0-.257-.006-.425-.017-.503-.023-.47-.162-.855-.419-1.157-.246-.313-.621-.47-1.124-.47-.526 0-.906.157-1.141.47-.234.313-.363.743-.385 1.291l-.017.369c0 .66.112 1.185.335 1.576.224.38.627.57 1.208.57zm6.889 2.364a.447.447 0 0 1-.302-.117.447.447 0 0 1-.117-.302V33.63a.41.41 0 0 1 .117-.302.447.447 0 0 1 .302-.117h1.979c.123 0 .224.04.302.117a.41.41 0 0 1 .118.302V44.7a.41.41 0 0 1-.118.301.408.408 0 0 1-.302.117h-1.979zm8.405.168c-1.342 0-2.398-.363-3.17-1.09-.771-.727-1.174-1.783-1.207-3.17v-.587c.044-1.319.452-2.348 1.224-3.086.783-.749 1.828-1.123 3.136-1.123.95 0 1.75.195 2.398.587.66.38 1.152.905 1.476 1.576.336.671.503 1.442.503 2.315v.402a.447.447 0 0 1-.117.302.408.408 0 0 1-.302.117h-5.367v.118c.023.525.151.95.386 1.274.235.325.576.487 1.023.487.28 0 .509-.056.688-.168a2.55 2.55 0 0 0 .486-.436c.101-.123.179-.196.235-.218a.702.702 0 0 1 .302-.05h2.079c.101 0 .185.033.252.1a.272.272 0 0 1 .117.235c0 .29-.167.626-.503 1.006-.324.38-.799.71-1.425.99-.627.28-1.364.42-2.214.42zm1.409-5.417v-.034c0-.547-.129-.978-.386-1.29-.246-.325-.593-.487-1.04-.487-.436 0-.783.162-1.04.486-.246.313-.369.744-.369 1.291v.034h2.835zm8.698 5.25a.446.446 0 0 1-.302-.118.447.447 0 0 1-.117-.302V33.797a.41.41 0 0 1 .117-.302.446.446 0 0 1 .302-.117h4.696c1.431 0 2.554.33 3.371.99.827.659 1.241 1.62 1.241 2.884 0 1.252-.408 2.197-1.225 2.834-.816.626-1.945.94-3.387.94h-1.996v3.672a.384.384 0 0 1-.134.302.41.41 0 0 1-.302.117h-2.264zm4.612-6.407c.492 0 .878-.123 1.157-.37.28-.256.419-.63.419-1.123 0-.458-.134-.822-.402-1.09-.257-.28-.649-.42-1.174-.42h-1.962v3.003h1.962zm6.537 6.406a.446.446 0 0 1-.302-.117.447.447 0 0 1-.117-.302V33.63a.41.41 0 0 1 .117-.302.446.446 0 0 1 .302-.117h1.979a.41.41 0 0 1 .302.117.41.41 0 0 1 .117.302V44.7a.41.41 0 0 1-.117.301.41.41 0 0 1-.302.117h-1.979zm6.996.168a3.885 3.885 0 0 1-1.627-.335 2.972 2.972 0 0 1-1.141-.94 2.341 2.341 0 0 1-.402-1.324c0-.772.313-1.392.939-1.862.637-.47 1.509-.794 2.616-.973l2.097-.318v-.235c0-.425-.09-.738-.269-.94-.178-.2-.48-.301-.905-.301-.257 0-.47.044-.638.134-.167.09-.341.212-.519.369a2.635 2.635 0 0 1-.353.268c-.033.09-.095.134-.184.134h-1.828a.422.422 0 0 1-.285-.1.34.34 0 0 1-.084-.269c.011-.301.156-.637.436-1.006.291-.369.727-.687 1.308-.956.593-.268 1.319-.402 2.18-.402 1.376 0 2.393.307 3.053.922.659.604.989 1.42.989 2.449v5.098a.447.447 0 0 1-.117.302.408.408 0 0 1-.302.117h-1.946a.445.445 0 0 1-.301-.117.443.443 0 0 1-.118-.302v-.587c-.246.347-.592.632-1.04.856-.436.212-.956.318-1.559.318zm.788-1.912c.514 0 .928-.167 1.241-.503.324-.335.486-.827.486-1.476v-.234l-1.425.251c-1.006.179-1.51.531-1.51 1.057 0 .28.118.503.353.67.234.157.519.235.855.235zm7.836 4.93a.343.343 0 0 1-.352-.351c0-.078.017-.151.05-.218l1.308-3.153-3.22-7.614a.656.656 0 0 1-.05-.202.498.498 0 0 1 .134-.251.318.318 0 0 1 .252-.117h1.912c.234 0 .397.117.486.352l1.912 4.88 1.962-4.88c.112-.235.28-.352.503-.352h1.879c.1 0 .184.039.251.117a.303.303 0 0 1 .118.235.789.789 0 0 1-.051.218l-4.746 10.985c-.089.235-.257.352-.503.352h-1.845zM46.274 29.102 35.63 18.226l13.542 7.922-2.898 2.954zM32.853 17.587c-.627.334-1.046.944-1.046 1.735v21.687c0 .791.42 1.4 1.046 1.735l12.376-12.581-12.376-12.576zm20.506 11.087L50.519 27l-3.17 3.17 3.17 3.169 2.898-1.676c.868-.702.868-2.285-.058-2.988zM35.63 42.111l13.542-7.922-2.898-2.954-10.644 10.876z" fill="#fff"/></svg>