<svg width="20" height="16" fill="none" xmlns="http://www.w3.org/2000/svg"><path d="M19.826 1.9a8.094 8.094 0 0 1-2.324.625A4.026 4.026 0 0 0 19.277.301c-.791.47-1.658.8-2.561.975A4.027 4.027 0 0 0 13.766 0a4.035 4.035 0 0 0-4.035 4.038c0 .312.038.625.1.925A11.47 11.47 0 0 1 1.509.738a4.008 4.008 0 0 0-.55 2.038c0 1.402.713 2.637 1.8 3.364a4.071 4.071 0 0 1-1.825-.514v.05a4.037 4.037 0 0 0 3.235 3.962c-.347.09-.704.136-1.063.137-.262 0-.51-.026-.762-.061.512 1.6 2 2.762 3.773 2.8a8.089 8.089 0 0 1-5.01 1.725c-.339 0-.651-.012-.976-.05A11.429 11.429 0 0 0 6.331 16c7.422 0 11.483-6.15 11.483-11.486 0-.176 0-.35-.012-.526a8.692 8.692 0 0 0 2.024-2.087z" fill="#fff"/></svg>