<svg width="45" height="31" fill="none" xmlns="http://www.w3.org/2000/svg"><rect opacity=".45" width="29.26" height="21.736" rx="3" transform="scale(1.22477 .70706) rotate(45 -1.711 22.445)" fill="url(#a)"/><rect width="29.26" height="21.736" rx="3" transform="scale(1.22477 .70706) rotate(45 7.685 18.553)" fill="#fff"/><path d="M22.938 6.409c-.877-.51-2.07-.8-3.316-.803-1.246-.004-2.445.278-3.333.784-.436.25-.78.55-1.014.878-.234.328-.351.68-.346 1.035.002.15.107.294.29.4.185.107.434.167.695.168.128 0 .255-.013.374-.041.119-.029.227-.07.317-.122a.662.662 0 0 0 .212-.184.363.363 0 0 0 .072-.216 1.015 1.015 0 0 1 .202-.604c.136-.192.337-.366.591-.512.254-.147.556-.263.888-.342a4.49 4.49 0 0 1 1.046-.116c.73.003 1.427.171 1.942.469.515.297.807.7.813 1.12.002.208-.066.413-.202.605a1.847 1.847 0 0 1-.591.513 3.306 3.306 0 0 1-.888.34 4.487 4.487 0 0 1-1.047.117c-.128 0-.255.014-.374.042-.119.028-.226.07-.317.122a.66.66 0 0 0-.212.183.363.363 0 0 0-.072.216c.002.15.106.295.29.401.185.106.434.166.694.168a7.672 7.672 0 0 0 1.796-.198 5.655 5.655 0 0 0 1.523-.584c.875-.513 1.364-1.205 1.358-1.925-.006-.72-.506-1.408-1.39-1.914z" fill="#00D7D7"/><defs><linearGradient id="a" x1="33.364" y1="14.532" x2="17.79" y2="34.505" gradientUnits="userSpaceOnUse"><stop stop-color="#fff"/><stop offset="1" stop-color="#fff" stop-opacity="0"/></linearGradient></defs></svg>