<svg width="17" height="16" fill="none" xmlns="http://www.w3.org/2000/svg"><path d="M8.131 0C5.957 0 5.686.01 4.834.047 3.98.089 3.402.22 2.892.419a3.924 3.924 0 0 0-1.417.925A3.879 3.879 0 0 0 .55 2.76C.352 3.27.22 3.848.178 4.703.139 5.555.13 5.825.13 8s.01 2.446.047 3.297c.042.852.174 1.433.372 1.943.202.534.517 1.017.925 1.416.398.409.882.725 1.417.925.51.196 1.09.33 1.942.373.852.038 1.123.046 3.297.046 2.175 0 2.446-.01 3.297-.046.852-.043 1.433-.178 1.943-.373a3.923 3.923 0 0 0 1.417-.925c.409-.398.725-.882.924-1.416.196-.51.33-1.091.373-1.943.038-.852.046-1.122.046-3.297s-.01-2.446-.046-3.297c-.042-.852-.178-1.436-.373-1.943a3.924 3.924 0 0 0-.924-1.416A3.858 3.858 0 0 0 13.37.419c-.51-.198-1.09-.33-1.943-.372C10.577.008 10.306 0 8.131 0zm0 1.44c2.136 0 2.391.01 3.235.047.779.036 1.203.166 1.484.276.348.129.664.333.923.599.265.258.468.572.596.92.11.28.24.705.276 1.484.036.844.047 1.1.047 3.235s-.01 2.39-.05 3.234c-.042.779-.172 1.203-.281 1.485-.152.375-.32.638-.6.922-.26.264-.575.467-.922.596-.278.11-.708.24-1.49.276-.848.036-1.098.047-3.24.047-2.14 0-2.39-.01-3.24-.05-.779-.042-1.208-.172-1.49-.281a2.51 2.51 0 0 1-.92-.6 2.403 2.403 0 0 1-.598-.922c-.112-.278-.24-.708-.281-1.49-.029-.838-.042-1.098-.042-3.23 0-2.13.013-2.39.042-3.24.041-.781.169-1.21.281-1.49.138-.38.318-.64.599-.921.278-.279.54-.459.92-.6.28-.11.7-.24 1.481-.278.85-.03 1.1-.042 3.237-.042l.033.023zm0 2.454a4.106 4.106 0 0 0-2.904 7.011 4.105 4.105 0 0 0 5.809 0 4.105 4.105 0 0 0 .89-4.476 4.105 4.105 0 0 0-3.795-2.535zm0 6.774A2.665 2.665 0 0 1 5.465 8 2.665 2.665 0 0 1 8.13 5.334a2.665 2.665 0 0 1 2.667 2.667 2.665 2.665 0 0 1-2.667 2.667zm5.233-6.938a.962.962 0 0 1-1.921.001.96.96 0 0 1 1.921-.001z" fill="#fff"/></svg>