<svg width="511" height="509" fill="none" xmlns="http://www.w3.org/2000/svg"><path d="M255.468.003A254.312 254.312 0 0 0 0 252.558a255.469 255.469 0 0 0 436.11 180.643 255.471 255.471 0 0 0 74.825-180.643A254.311 254.311 0 0 0 255.468.003zm0 385.943a133.405 133.405 0 1 1 134.92-133.388 134.147 134.147 0 0 1-39.834 94.638 134.164 134.164 0 0 1-95.086 38.75z" fill="url(#a)"/><path fill-rule="evenodd" clip-rule="evenodd" d="M324.224 241.137a2.195 2.195 0 0 0 1.59.626 2.207 2.207 0 0 0 1.56-.694 9.581 9.581 0 0 0 1.873-10.309 9.573 9.573 0 0 0-8.692-5.851 9.57 9.57 0 0 0-8.692 5.851 9.573 9.573 0 0 0 1.872 10.309 2.207 2.207 0 0 0 3.151.068 2.274 2.274 0 0 0 .067-3.184 5.089 5.089 0 0 1 .099-7.085 4.936 4.936 0 0 1 1.607-1.075 4.935 4.935 0 0 1 3.792 0 4.958 4.958 0 0 1 1.607 1.075 5.088 5.088 0 0 1 .099 7.085 2.267 2.267 0 0 0 .068 3.184h-.001zm5.774 34.655a10.763 10.763 0 0 0-10.688-10.809 10.555 10.555 0 0 0-7.549 3.163 2.272 2.272 0 0 0 0 3.184 2.21 2.21 0 0 0 3.152 0 6.177 6.177 0 0 1 8.809 0 6.353 6.353 0 0 1 0 8.911 6.174 6.174 0 0 1-4.405 1.846 6.177 6.177 0 0 1-4.404-1.846 2.214 2.214 0 0 0-3.151 0 2.27 2.27 0 0 0 0 3.184 10.553 10.553 0 0 0 7.548 3.177 10.762 10.762 0 0 0 10.688-10.81zm0-22.636a9.506 9.506 0 0 0-9.444-9.554 9.554 9.554 0 1 0 0 19.108 9.511 9.511 0 0 0 9.444-9.554zm-14.433 0a4.996 4.996 0 0 1 3.119-4.569 4.991 4.991 0 0 1 4.636 8.778 4.989 4.989 0 0 1-2.766.836 5.013 5.013 0 0 1-4.989-5.045zm11.323-49.039a10.766 10.766 0 0 1 3.11 7.614 10.765 10.765 0 0 1-10.688 10.809 10.563 10.563 0 0 1-7.549-3.176 2.275 2.275 0 0 1 0-3.185 2.205 2.205 0 0 1 1.576-.66 2.205 2.205 0 0 1 1.576.66 6.167 6.167 0 0 0 4.405 1.846 6.176 6.176 0 0 0 4.405-1.846 6.351 6.351 0 0 0 0-8.911 6.177 6.177 0 0 0-8.81 0 2.214 2.214 0 0 1-3.152 0 2.274 2.274 0 0 1 0-3.184 10.56 10.56 0 0 1 7.549-3.162 10.765 10.765 0 0 1 7.578 3.195zm-6.322 32.596c-1.229.007-2.232-.996-2.239-2.239-.006-1.244.985-2.258 2.215-2.265 1.229-.007 2.232.996 2.239 2.24.007 1.244-.985 2.258-2.215 2.264z" fill="#C4F3F7"/><defs><linearGradient id="a" x1="585.5" y1="508" x2="53.516" y2="262.824" gradientUnits="userSpaceOnUse"><stop stop-color="#00A5F0"/><stop offset="1" stop-color="#00D7D7" stop-opacity="0"/></linearGradient></defs></svg>