<svg width="18" height="14" fill="none" xmlns="http://www.w3.org/2000/svg"><path d="M17.233 1.663a7.081 7.081 0 0 1-2.034.547A3.523 3.523 0 0 0 16.752.263c-.692.412-1.45.7-2.24.853A3.523 3.523 0 0 0 11.931 0 3.53 3.53 0 0 0 8.4 3.533c0 .274.033.547.087.81A10.036 10.036 0 0 1 1.205.646a3.507 3.507 0 0 0-.48 1.783c0 1.226.623 2.307 1.574 2.943a3.562 3.562 0 0 1-1.597-.45v.044a3.532 3.532 0 0 0 2.831 3.467 3.74 3.74 0 0 1-.93.12c-.23 0-.447-.023-.667-.054a3.538 3.538 0 0 0 3.302 2.45 7.078 7.078 0 0 1-4.385 1.51c-.296 0-.57-.01-.853-.043A10 10 0 0 0 5.424 14c6.495 0 10.048-5.38 10.048-10.05 0-.154 0-.307-.01-.46a7.604 7.604 0 0 0 1.77-1.827z" fill="#00A5F0"/></svg>