<svg width="113" height="106" viewBox="0 0 113 106" fill="none" xmlns="http://www.w3.org/2000/svg">
<g opacity="0.56" filter="url(#filter0_f_207_155)">
<rect x="30" y="30" width="53" height="46" rx="12" fill="url(#paint0_linear_207_155)"/>
</g>
<rect x="24" y="6" width="65" height="65" rx="8" fill="url(#paint1_linear_207_155)"/>
<path d="M56.4998 25.1178C52.1656 25.1003 48.0009 26.7303 44.9189 29.6505C41.8369 32.5708 40.0891 36.5429 40.0586 40.6961C40.0556 42.7443 40.4794 44.7725 41.3052 46.6616C42.131 48.5508 43.3422 50.263 44.8676 51.6977C45.5139 52.3061 46.3836 52.6471 47.2896 52.6471C48.1956 52.6471 49.0653 52.3061 49.7115 51.6977C50.0295 51.3978 50.2821 51.0403 50.4544 50.646C50.6268 50.2517 50.7156 49.8285 50.7156 49.401C50.7156 48.9735 50.6268 48.5503 50.4544 48.156C50.2821 47.7617 50.0295 47.4042 49.7115 47.1043C48.8222 46.2663 48.116 45.267 47.6338 44.1647C47.1517 43.0624 46.9034 41.8792 46.9034 40.684C46.9034 39.4888 47.1517 38.3056 47.6338 37.2033C48.116 36.101 48.8222 35.1017 49.7115 34.2637C51.5191 32.5597 53.9531 31.6048 56.4886 31.6048C59.0242 31.6048 61.4582 32.5597 63.2657 34.2637C64.155 35.1017 64.8613 36.101 65.3434 37.2033C65.8256 38.3056 66.0739 39.4888 66.0739 40.684C66.0739 41.8792 65.8256 43.0624 65.3434 44.1647C64.8613 45.267 64.155 46.2663 63.2657 47.1043C62.9478 47.4042 62.6952 47.7617 62.5228 48.156C62.3505 48.5503 62.2617 48.9735 62.2617 49.401C62.2617 49.8285 62.3505 50.2517 62.5228 50.646C62.6952 51.0403 62.9478 51.3978 63.2657 51.6977C63.912 52.3061 64.7817 52.6471 65.6877 52.6471C66.5937 52.6471 67.4634 52.3061 68.1096 51.6977C69.6391 50.2648 70.8544 48.5534 71.684 46.6641C72.5137 44.7749 72.941 42.7458 72.9409 40.6961C72.9105 36.5429 71.1626 32.5708 68.0806 29.6505C64.9986 26.7303 60.834 25.1003 56.4998 25.1178Z" fill="white"/>
<defs>
<filter id="filter0_f_207_155" x="0" y="0" width="113" height="106" filterUnits="userSpaceOnUse" color-interpolation-filters="sRGB">
<feFlood flood-opacity="0" result="BackgroundImageFix"/>
<feBlend mode="normal" in="SourceGraphic" in2="BackgroundImageFix" result="shape"/>
<feGaussianBlur stdDeviation="15" result="effect1_foregroundBlur_207_155"/>
</filter>
<linearGradient id="paint0_linear_207_155" x1="30.5337" y1="44.0244" x2="84.6946" y2="55.6165" gradientUnits="userSpaceOnUse">
<stop stop-color="#008ECF"/>
<stop offset="1" stop-color="#08AEAE"/>
</linearGradient>
<linearGradient id="paint1_linear_207_155" x1="24.6545" y1="25.8171" x2="91.804" y2="38.2909" gradientUnits="userSpaceOnUse">
<stop stop-color="#00A5F0"/>
<stop offset="1" stop-color="#00D7D7"/>
</linearGradient>
</defs>
</svg>
