<svg width="23" height="16" fill="none" xmlns="http://www.w3.org/2000/svg"><path d="M22.062 7.931c0-.054 0-.116-.002-.187l-.013-.662a37.148 37.148 0 0 0-.108-2.017c-.074-.889-.182-1.63-.33-2.187A3.436 3.436 0 0 0 19.19.453C18.492.266 17.128.15 15.207.08c-.913-.035-1.89-.057-2.868-.07L11.393 0h-.724c-.286.002-.603.005-.945.01-.978.012-1.955.034-2.869.069-1.92.074-3.287.19-3.982.374a3.431 3.431 0 0 0-2.42 2.425c-.15.557-.256 1.298-.33 2.187C.07 5.71.034 6.395.015 7.082c-.008.238-.01.462-.013.662L0 7.93v.138c0 .054 0 .116.002.187l.013.662c.02.687.054 1.372.108 2.017.074.889.182 1.63.33 2.187a3.431 3.431 0 0 0 2.42 2.425c.695.187 2.061.303 3.982.374.914.035 1.891.057 2.869.07l.945.009h.724c.286-.002.603-.005.946-.01a115.62 115.62 0 0 0 2.868-.069c1.92-.074 3.287-.19 3.982-.374a3.427 3.427 0 0 0 2.42-2.425c.15-.557.256-1.298.33-2.187.054-.645.089-1.33.108-2.017.008-.238.01-.462.013-.662l.002-.187V7.93zm-1.773.128c0 .052 0 .108-.002.175l-.012.633a33.27 33.27 0 0 1-.104 1.918c-.066.793-.16 1.443-.276 1.879-.152.568-.6 1.019-1.167 1.17-.517.137-1.82.248-3.59.314a112.154 112.154 0 0 1-3.755.077h-.704l-.93-.008c-.964-.012-1.926-.034-2.825-.069-1.77-.069-3.075-.177-3.59-.315a1.661 1.661 0 0 1-1.167-1.17c-.116-.435-.21-1.085-.276-1.878a35.678 35.678 0 0 1-.103-1.918c-.008-.23-.01-.443-.013-.633l-.002-.175v-.118c0-.052 0-.108.002-.175l.013-.633c.017-.655.051-1.31.103-1.918.067-.793.16-1.443.276-1.879.152-.568.6-1.019 1.167-1.17.517-.137 1.82-.248 3.59-.314a111.816 111.816 0 0 1 3.755-.077h.704l.93.008c.964.012 1.926.034 2.825.069 1.77.069 3.076.177 3.59.315.566.152 1.015.6 1.167 1.17.116.435.21 1.085.276 1.878.052.608.084 1.263.104 1.918.007.23.01.443.012.633l.002.175v.118zM8.84 11.3l5.713-3.324L8.84 4.701V11.3z" fill="#fff"/></svg>